# xmcd
#
# Track frame offsets:
#	150
#	14747
#	37555
#	54685
#	70607
#	85522
#	100702
#	114745
#	130670
#	150185
#
# Disc length: 2211 seconds
#
# Revision: 0
# Processed by: cddbd v1.5PL3 Copyright (c) Steve Scherf et al.
# Submitted via: dBpowerAMP V4.0
#
DISCID=6a08a10a
DTITLE=Ursula George - Blue Basics
DYEAR=1999
DGENRE=Blues
TTITLE0=Key to the Highway
TTITLE1=Make Me a Pallet on Your Floor
TTITLE2=Help Me
TTITLE3=Son of a Preacher Man
TTITLE4=Living with the Blues
TTITLE5=Women Be Wise
TTITLE6=She Caught the Katy
TTITLE7=Big Boss Man
TTITLE8=Thrill Is Gone
TTITLE9=Love Me Like a Man
EXTD=
EXTT0=
EXTT1=
EXTT2=
EXTT3=
EXTT4=
EXTT5=
EXTT6=
EXTT7=
EXTT8=
EXTT9=
PLAYORDER=
